<?xml version="1.0" encoding="iso-8859-1"?>
<!-- Generator: Adobe Illustrator 19.0.0, SVG Export Plug-In . SVG Version: 6.00 Build 0)  -->
<svg version="1.1" id="Layer_1" xmlns="http://www.w3.org/2000/svg" xmlns:xlink="http://www.w3.org/1999/xlink" x="0px" y="0px"
	 viewBox="0 0 279.84 279.84" style="enable-background:new 0 0 279.84 279.84;" xml:space="preserve">
<g>
	<g>
		<g>
			<path d="M265.084,104.078c-8.136,0-14.752,6.9-14.752,15.388c0,7.148,4.724,13.124,11.072,14.84l-24.116,51.988l-24.892-69.592
				c9.364-1.144,16.676-9.38,16.676-19.46c0-10.856-8.456-19.688-18.856-19.688c-10.396,0-18.856,8.832-18.856,19.688
				c0,9.124,6,16.744,14.076,18.968l-34.068,61.3l-28.264-105.8c11.788-1.64,20.92-12.188,20.92-24.948
				c0-13.892-10.816-25.196-24.108-25.196s-24.108,11.304-24.108,25.196c0,12.756,9.132,23.308,20.92,24.948l-28.264,105.8
				l-33.84-60.9c8.948-1.532,15.82-9.596,15.82-19.368c0-10.856-8.46-19.688-18.856-19.688s-18.856,8.832-18.856,19.688
				c0,9.404,6.352,17.26,14.804,19.204L42.552,186.29l-24.12-51.988c6.348-1.716,11.076-7.688,11.076-14.84
				c0-8.484-6.62-15.388-14.756-15.388S0,110.974,0,119.462c0,7.38,5.016,13.552,11.672,15.036V255.13
				c0,1.736,1.38,3.144,3.08,3.144H265.08c1.7,0,3.08-1.408,3.08-3.144V134.498c6.664-1.48,11.68-7.652,11.68-15.032
				C279.84,110.982,273.22,104.078,265.084,104.078z M197.52,97.238c0-7.392,5.696-13.404,12.7-13.404
				c7.004,0,12.696,6.016,12.696,13.404s-5.692,13.404-12.696,13.404C203.216,110.646,197.52,104.63,197.52,97.238z M121.972,46.762
				c0-10.428,8.052-18.912,17.948-18.912c9.9,0,17.948,8.484,17.948,18.912c0,10.428-8.048,18.912-17.948,18.912
				C130.024,65.674,121.972,57.19,121.972,46.762z M58.896,97.238c0-7.392,5.692-13.404,12.696-13.404
				c7.004,0,12.7,6.016,12.7,13.404s-5.696,13.404-12.7,13.404C64.588,110.646,58.896,104.63,58.896,97.238z M6.164,119.466
				c0-5.02,3.856-9.104,8.596-9.104s8.596,4.088,8.596,9.104c0,5.016-3.856,9.1-8.596,9.1S6.164,124.482,6.164,119.466z
				 M262.016,251.99h-0.008H17.84v-104.3l22.304,48.076c0.536,1.144,1.672,1.808,2.924,1.796c1.244-0.06,2.324-0.872,2.752-2.06
				l25.68-71.796l35.304,63.532c0.616,1.104,1.816,1.724,3.06,1.568c1.236-0.156,2.26-1.064,2.588-2.288l27.476-102.856
				l27.476,102.856c0.328,1.228,1.352,2.132,2.588,2.288c1.208,0.16,2.444-0.46,3.06-1.568l35.308-63.532l25.68,71.796
				c0.428,1.188,1.512,2,2.752,2.06c1.22,0.008,2.388-0.652,2.92-1.796l22.304-48.076V251.99z M265.084,128.566
				c-4.736,0-8.596-4.084-8.596-9.1c0-5.02,3.856-9.104,8.596-9.104c4.74,0,8.6,4.088,8.6,9.104S269.828,128.566,265.084,128.566z"
				/>
			<path d="M194.444,227.706h-9.576c-1.7,0-3.08,1.404-3.08,3.14s1.38,3.144,3.08,3.144h9.576c1.7,0,3.08-1.404,3.08-3.144
				C197.524,229.11,196.144,227.706,194.444,227.706z"/>
			<path d="M172.508,227.706h-32.564c-1.7,0-3.08,1.404-3.08,3.14s1.38,3.144,3.08,3.144h32.568c1.7,0,3.08-1.404,3.08-3.144
				C175.588,229.11,174.212,227.706,172.508,227.706z"/>
			<path d="M125.088,227.706c-31.812-1.008-59.636-1.008-90.224,0c-1.7,0.056-3.036,1.508-2.976,3.24
				c0.048,1.732,1.476,3.012,3.172,3.04c30.464-1.008,58.168-1.008,89.836,0h0.096c1.656,0,3.024-1.34,3.076-3.044
				C128.12,229.21,126.784,227.758,125.088,227.706z"/>
			<path d="M143.792,43.73c1.316,1.5,1.876,3.68,1.672,6.476c-0.124,1.732,1.148,3.236,2.84,3.368
				c0.08,0.008,0.156,0.008,0.232,0.008c1.596,0,2.944-1.26,3.068-2.908c0.332-4.572-0.756-8.316-3.228-11.136
				c-3.764-4.288-9.212-4.6-9.824-4.62c-0.036-0.004-0.072-0.004-0.108-0.004c-1.652,0-3.02,1.336-3.076,3.032
				c-0.06,1.732,1.268,3.192,2.968,3.248C138.372,41.198,141.756,41.418,143.792,43.73z"/>
		</g>
	</g>
</g>
<g>
</g>
<g>
</g>
<g>
</g>
<g>
</g>
<g>
</g>
<g>
</g>
<g>
</g>
<g>
</g>
<g>
</g>
<g>
</g>
<g>
</g>
<g>
</g>
<g>
</g>
<g>
</g>
<g>
</g>
</svg>
